# File created by Blade
# Date/Time:  Thu Sep 25 18:39:44 2014
# Frame Rate: 120.000 fps
#------------------------------------------------------
:FULLY-SPECIFIED
:DEGREES
1549
root -0.724120 33.090839 -3.210260 7.249853 2.082745 -1.861011
Spine -11.395012 -9.044644 4.247318
Head -9.235270 18.856306 11.651384
LeftShoulder 27.015962 -6.686594 37.626122
LeftArm 129.274557 8.893796 -44.854139
LeftForeArm -21.268224 0.000000 95.884199
LeftHand -11.154416 -0.000000 -41.707086
LeftHandThumb1 -26.253704 0.000000 33.147579
RightShoulder 2.627963 25.897133 -21.129898
RightArm 39.737688 -21.866358 95.720219
RightForeArm 11.707020 0.000000 127.398783
RightHand 3.244694 -0.000000 46.889237
RightHandThumb1 -24.326973 -0.000000 -32.862282
LeftUpLeg -2.127021 8.023152 2.061201
LeftLeg -0.617823 -0.000000 0.000000
LeftFoot -9.068472 1.814403 -9.608656
LeftToeBase 9.859745 -0.000000 -0.000000
RightUpLeg -3.514247 -5.124556 0.751729
RightLeg 2.071172 -0.000000 -0.000000
RightFoot -6.731963 -1.797975 0.790122
RightToeBase -0.602327 -0.000000 0.000000
1550
root -0.726320 33.090498 -3.211157 7.255097 2.080000 -1.871324
Spine -11.426503 -9.126613 4.318809
Head -9.128196 18.910639 11.438344
LeftShoulder 26.965941 -5.389614 37.756760
LeftArm 130.262488 7.940904 -44.593824
LeftForeArm -21.086899 -0.000000 96.137348
LeftHand -11.123698 0.000000 -42.126245
LeftHandThumb1 -26.253704 0.000000 33.147579
RightShoulder 2.792815 26.592565 -21.327451
RightArm 38.932095 -21.725692 96.015396
RightForeArm 11.551514 -0.000000 127.563430
RightHand 3.288352 -0.000000 46.700290
RightHandThumb1 -24.326973 -0.000000 -32.862282
LeftUpLeg -2.128209 8.018222 2.074516
LeftLeg -0.629960 -0.000000 0.000000
LeftFoot -9.054609 1.815809 -9.630124
LeftToeBase 9.812398 -0.000000 -0.000000
RightUpLeg -3.517106 -5.096699 0.766166
RightLeg 2.061465 -0.000000 -0.000000
RightFoot -6.728294 -1.826519 0.773067
RightToeBase -0.566969 -0.000000 0.000000
1551
root -0.728431 33.090116 -3.212043 7.267028 2.077539 -1.878144
Spine -11.461419 -9.176205 4.335948
Head -9.010084 18.960888 11.399469
LeftShoulder 27.040777 -5.424591 37.581665
LeftArm 130.210294 8.060065 -44.693164
LeftForeArm -20.807138 -0.000000 96.585345
LeftHand -11.140446 -0.000000 -42.607014
LeftHandThumb1 -26.253704 0.000000 33.147579
RightShoulder 2.919841 26.605733 -21.504381
RightArm 38.829569 -21.595266 96.109803
RightForeArm 11.393194 -0.000000 127.740817
RightHand 3.301679 -0.000000 46.698514
RightHandThumb1 -24.326973 -0.000000 -32.862282
LeftUpLeg -2.138453 8.032915 2.084013
LeftLeg -0.640584 -0.000000 0.000000
LeftFoot -9.101701 1.808177 -9.775878
LeftToeBase 10.030816 -0.000000 -0.000000
RightUpLeg -3.535655 -5.085942 0.773142
RightLeg 2.073110 -0.000000 -0.000000
RightFoot -6.751832 -1.804113 0.832260
RightToeBase -0.508606 -0.000000 0.000000
1552
root -0.731469 33.090101 -3.212926 7.277543 2.079037 -1.890663
Spine -11.489010 -9.290332 4.425107
Head -8.937925 19.067104 11.169880
LeftShoulder 26.913224 -3.998924 37.749855
LeftArm 131.300266 7.078152 -44.431683
LeftForeArm -20.516287 0.000000 96.897086
LeftHand -11.271962 -0.000000 -43.047939
LeftHandThumb1 -26.253704 0.000000 33.147579
RightShoulder 2.915407 27.120075 -21.434055
RightArm 38.459867 -21.711536 96.187976
RightForeArm 11.316407 -0.000000 127.636582
RightHand 3.312790 -0.000000 46.780795
RightHandThumb1 -24.326973 -0.000000 -32.862282
LeftUpLeg -2.149907 8.035925 2.100047
LeftLeg -0.643888 -0.000000 0.000000
LeftFoot -9.108675 1.801326 -9.794678
LeftToeBase 10.046707 -0.000000 -0.000000
RightUpLeg -3.547094 -5.060904 0.791399
RightLeg 2.069455 -0.000000 -0.000000
RightFoot -6.735117 -1.830585 0.822642
RightToeBase -0.526160 -0.000000 0.000000
1553
root -0.734141 33.090028 -3.212601 7.275447 2.078672 -1.896436
Spine -11.502613 -9.388774 4.505049
Head -8.865255 19.175697 10.920584
LeftShoulder 26.778445 -2.406457 37.971193
LeftArm 132.516505 5.958179 -44.170503
LeftForeArm -20.229571 0.000000 97.246839
LeftHand -11.472076 -0.000000 -43.250628
LeftHandThumb1 -26.253704 0.000000 33.147579
RightShoulder 2.925934 27.634556 -21.313481
RightArm 38.114523 -21.841710 96.197958
RightForeArm 11.175992 -0.000000 127.519695
RightHand 3.370494 -0.000000 46.773562
RightHandThumb1 -24.326973 -0.000000 -32.862282
LeftUpLeg -2.145647 8.035546 2.108375
LeftLeg -0.642986 -0.000000 0.000000
LeftFoot -9.062349 1.807697 -9.649925
LeftToeBase 9.835407 -0.000000 -0.000000
RightUpLeg -3.542783 -5.064619 0.800120
RightLeg 2.062966 -0.000000 -0.000000
RightFoot -6.723126 -1.815068 0.828906
RightToeBase -0.545244 -0.000000 0.000000
1554
root -0.735639 33.090652 -3.213009 7.270214 2.076752 -1.902361
Spine -11.510628 -9.511303 4.603102
Head -8.805730 19.310980 10.640320
LeftShoulder 26.595951 -0.612631 38.183113
LeftArm 133.844176 4.647575 -43.874261
LeftForeArm -19.935613 -0.000000 97.525127
LeftHand -11.378031 -0.000000 -43.446847
LeftHandThumb1 -26.253704 0.000000 33.147579
RightShoulder 2.960470 28.095416 -21.264320
RightArm 37.802231 -21.957974 96.236914
RightForeArm 11.075563 -0.000000 127.433141
RightHand 3.291057 -0.000000 46.770738
RightHandThumb1 -24.326973 -0.000000 -32.862282
LeftUpLeg -2.141110 8.035966 2.116600
LeftLeg -0.642926 -0.000000 0.000000
LeftFoot -9.064794 1.811796 -9.627396
LeftToeBase 9.857645 -0.000000 -0.000000
RightUpLeg -3.536012 -5.049518 0.807013
RightLeg 2.057222 -0.000000 -0.000000
RightFoot -6.710720 -1.832710 0.820896
RightToeBase -0.608846 -0.000000 0.000000
1555
root -0.737419 33.090689 -3.212937 7.268423 2.077605 -1.904737
Spine -11.513663 -9.589582 4.653540
Head -8.758379 19.427558 10.468379
LeftShoulder 26.542680 0.508762 38.302636
LeftArm 134.699179 3.850210 -43.740167
LeftForeArm -19.249280 0.000000 97.906455
LeftHand -11.480957 -0.000000 -43.557375
LeftHandThumb1 -26.253704 0.000000 33.147579
RightShoulder 3.015977 28.428617 -21.243812
RightArm 37.543523 -21.985597 96.298268
RightForeArm 10.943282 -0.000000 127.443718
RightHand 3.244337 -0.000000 46.779522
RightHandThumb1 -24.326973 -0.000000 -32.862282
LeftUpLeg -2.137803 8.041150 2.125050
LeftLeg -0.651515 -0.000000 0.000000
LeftFoot -9.108031 1.806827 -9.793618
LeftToeBase 10.044022 -0.000000 -0.000000
RightUpLeg -3.534595 -5.054533 0.811275
RightLeg 2.060567 -0.000000 -0.000000
RightFoot -6.713607 -1.817383 0.826849
RightToeBase -0.597445 -0.000000 0.000000
1556
root -0.738691 33.091029 -3.213447 7.265906 2.077113 -1.909823
Spine -11.523211 -9.685567 4.737374
Head -8.709963 19.548970 10.224687
LeftShoulder 26.467612 1.250719 38.291872
LeftArm 135.211956 3.356865 -43.698280
LeftForeArm -18.686257 0.000000 98.341330
LeftHand -11.524461 0.000000 -43.739554
LeftHandThumb1 -26.253704 0.000000 33.147579
RightShoulder 3.016719 28.935063 -21.095301
RightArm 37.232650 -22.137687 96.290748
RightForeArm 10.831350 -0.000000 127.321062
RightHand 3.173051 -0.000000 46.820534
RightHandThumb1 -24.326973 -0.000000 -32.862282
LeftUpLeg -2.134342 8.019486 2.132586
LeftLeg -0.653054 -0.000000 0.000000
LeftFoot -9.124732 1.845310 -9.765850
LeftToeBase 10.144349 -0.000000 -0.000000
RightUpLeg -3.531548 -5.038717 0.819119
RightLeg 2.055271 -0.000000 -0.000000
RightFoot -6.712116 -1.835975 0.831847
RightToeBase -0.548607 -0.000000 0.000000
1557
root -0.740940 33.091721 -3.213815 7.255416 2.077729 -1.914174
Spine -11.530626 -9.793929 4.800720
Head -8.617973 19.672045 10.043603
LeftShoulder 26.394093 2.508144 38.434954
LeftArm 136.094795 2.509379 -43.594354
LeftForeArm -18.208256 -0.000000 98.703530
LeftHand -11.576748 -0.000000 -43.844986
LeftHandThumb1 -26.253704 0.000000 33.147579
RightShoulder 3.003292 25.968729 -21.158041
RightArm 40.601938 -22.559172 94.882162
RightForeArm 10.684188 -0.000000 127.264236
RightHand 3.155787 -0.000000 46.733463
RightHandThumb1 -24.326973 -0.000000 -32.862282
LeftUpLeg -2.124652 8.027979 2.141715
LeftLeg -0.656723 -0.000000 0.000000
LeftFoot -9.094009 1.826898 -9.798974
LeftToeBase 10.006845 -0.000000 -0.000000
RightUpLeg -3.522020 -5.040155 0.824789
RightLeg 2.057558 -0.000000 -0.000000
RightFoot -6.700531 -1.825946 0.831888
RightToeBase -0.556817 -0.000000 0.000000
1558
root -0.742413 33.092294 -3.213827 7.242726 2.080715 -1.914553
Spine -11.523405 -9.874069 4.867492
Head -8.570343 19.764922 9.799851
LeftShoulder 26.297686 3.866037 38.549058
LeftArm 137.112804 1.588383 -43.427342
LeftForeArm -17.672985 -0.000000 99.058989
LeftHand -11.976026 -0.000000 -43.686387
LeftHandThumb1 -26.253704 0.000000 33.147579
RightShoulder 3.034908 25.991638 -21.163436
RightArm 40.693323 -22.653089 94.786296
RightForeArm 10.534772 -0.000000 127.248468
RightHand 3.132514 -0.000000 46.721373
RightHandThumb1 -24.326973 -0.000000 -32.862282
LeftUpLeg -2.114010 8.033098 2.147243
LeftLeg -0.652126 -0.000000 0.000000
LeftFoot -9.093833 1.821053 -9.799765
LeftToeBase 10.028583 -0.000000 -0.000000
RightUpLeg -3.506605 -5.037593 0.829187
RightLeg 2.048916 -0.000000 -0.000000
RightFoot -6.692065 -1.839899 0.837886
RightToeBase -0.568257 -0.000000 0.000000
1559
root -0.744418 33.092330 -3.214537 7.247001 2.083939 -1.919918
Spine -11.540229 -9.955372 4.923865
Head -8.511964 19.875473 9.625132
LeftShoulder 26.231090 4.701668 38.602244
LeftArm 137.716604 1.086778 -43.415951
LeftForeArm -17.103677 0.000000 99.461045
LeftHand -11.980789 -0.000000 -43.638911
LeftHandThumb1 -26.253704 0.000000 33.147579
RightShoulder 3.030366 25.544035 -21.157158
RightArm 41.288836 -22.777470 94.509311
RightForeArm 10.383767 -0.000000 127.204902
RightHand 3.263862 -0.000000 46.797662
RightHandThumb1 -24.326973 -0.000000 -32.862282
LeftUpLeg -2.121406 8.035785 2.155519
LeftLeg -0.651113 -0.000000 0.000000
LeftFoot -9.096171 1.808961 -9.816121
LeftToeBase 10.035702 -0.000000 -0.000000
RightUpLeg -3.514640 -5.037491 0.840847
RightLeg 2.053724 -0.000000 -0.000000
RightFoot -6.694545 -1.854639 0.836988
RightToeBase -0.557072 -0.000000 0.000000
